<mxfile host="app.diagrams.net" modified="2024-02-07T15:35:25.250Z" agent="Mozilla/5.0 (Windows NT 10.0; Win64; x64) AppleWebKit/537.36 (KHTML, like Gecko) Chrome/121.0.0.0 Safari/537.36" etag="iqkVt32ld-n4BMOT9gXg" version="23.1.1" type="device">
  <diagram name="Page-1" id="rFEq4uEQu_Bq4aG-nRl8">
    <mxGraphModel dx="1877" dy="1691" grid="1" gridSize="10" guides="1" tooltips="1" connect="1" arrows="1" fold="1" page="1" pageScale="1" pageWidth="827" pageHeight="1169" math="0" shadow="0">
      <root>
        <mxCell id="0" />
        <mxCell id="1" parent="0" />
        <mxCell id="qAK4HlkKnS2D4t3khg41-2" value="`" style="rounded=0;whiteSpace=wrap;html=1;" parent="1" vertex="1">
          <mxGeometry x="90" y="110" width="830" height="500" as="geometry" />
        </mxCell>
        <mxCell id="qAK4HlkKnS2D4t3khg41-3" value="" style="rounded=1;whiteSpace=wrap;html=1;" parent="1" vertex="1">
          <mxGeometry x="310" y="190" width="400" height="370" as="geometry" />
        </mxCell>
        <mxCell id="qAK4HlkKnS2D4t3khg41-4" value="&lt;font style=&quot;font-size: 21px;&quot;&gt;create admin account&lt;/font&gt;" style="text;html=1;strokeColor=none;fillColor=none;align=center;verticalAlign=middle;whiteSpace=wrap;rounded=0;" parent="1" vertex="1">
          <mxGeometry x="291" y="150" width="430" height="30" as="geometry" />
        </mxCell>
        <mxCell id="qAK4HlkKnS2D4t3khg41-5" value="Username" style="text;html=1;strokeColor=none;fillColor=none;align=center;verticalAlign=middle;whiteSpace=wrap;rounded=0;" parent="1" vertex="1">
          <mxGeometry x="350" y="200" width="60" height="30" as="geometry" />
        </mxCell>
        <mxCell id="qAK4HlkKnS2D4t3khg41-6" value="First name" style="text;html=1;strokeColor=none;fillColor=none;align=center;verticalAlign=middle;whiteSpace=wrap;rounded=0;" parent="1" vertex="1">
          <mxGeometry x="350" y="250" width="60" height="30" as="geometry" />
        </mxCell>
        <mxCell id="qAK4HlkKnS2D4t3khg41-8" value="Last name" style="text;html=1;strokeColor=none;fillColor=none;align=center;verticalAlign=middle;whiteSpace=wrap;rounded=0;" parent="1" vertex="1">
          <mxGeometry x="350" y="300" width="60" height="30" as="geometry" />
        </mxCell>
        <mxCell id="qAK4HlkKnS2D4t3khg41-9" value="Date of birth" style="text;html=1;strokeColor=none;fillColor=none;align=center;verticalAlign=middle;whiteSpace=wrap;rounded=0;" parent="1" vertex="1">
          <mxGeometry x="320" y="350" width="130" height="30" as="geometry" />
        </mxCell>
        <mxCell id="qAK4HlkKnS2D4t3khg41-10" value="phone number" style="text;html=1;strokeColor=none;fillColor=none;align=center;verticalAlign=middle;whiteSpace=wrap;rounded=0;" parent="1" vertex="1">
          <mxGeometry x="330" y="450" width="130" height="30" as="geometry" />
        </mxCell>
        <mxCell id="qAK4HlkKnS2D4t3khg41-11" value="Email" style="text;html=1;strokeColor=none;fillColor=none;align=center;verticalAlign=middle;whiteSpace=wrap;rounded=0;" parent="1" vertex="1">
          <mxGeometry x="300" y="400" width="130" height="30" as="geometry" />
        </mxCell>
        <mxCell id="qAK4HlkKnS2D4t3khg41-12" value="" style="rounded=1;whiteSpace=wrap;html=1;" parent="1" vertex="1">
          <mxGeometry x="350" y="230" width="310" height="20" as="geometry" />
        </mxCell>
        <mxCell id="qAK4HlkKnS2D4t3khg41-13" value="" style="rounded=1;whiteSpace=wrap;html=1;" parent="1" vertex="1">
          <mxGeometry x="349" y="280" width="310" height="20" as="geometry" />
        </mxCell>
        <mxCell id="qAK4HlkKnS2D4t3khg41-14" value="" style="rounded=1;whiteSpace=wrap;html=1;" parent="1" vertex="1">
          <mxGeometry x="350" y="330" width="310" height="20" as="geometry" />
        </mxCell>
        <mxCell id="qAK4HlkKnS2D4t3khg41-15" value="" style="rounded=1;whiteSpace=wrap;html=1;" parent="1" vertex="1">
          <mxGeometry x="349" y="380" width="310" height="20" as="geometry" />
        </mxCell>
        <mxCell id="qAK4HlkKnS2D4t3khg41-17" value="" style="rounded=1;whiteSpace=wrap;html=1;" parent="1" vertex="1">
          <mxGeometry x="349" y="430" width="310" height="20" as="geometry" />
        </mxCell>
        <mxCell id="qAK4HlkKnS2D4t3khg41-18" value="" style="rounded=1;whiteSpace=wrap;html=1;" parent="1" vertex="1">
          <mxGeometry x="350" y="480" width="310" height="20" as="geometry" />
        </mxCell>
        <mxCell id="qAK4HlkKnS2D4t3khg41-19" value="Create" style="rounded=1;whiteSpace=wrap;html=1;" parent="1" vertex="1">
          <mxGeometry x="450" y="510" width="96" height="40" as="geometry" />
        </mxCell>
        <mxCell id="qAK4HlkKnS2D4t3khg41-20" value="`" style="rounded=0;whiteSpace=wrap;html=1;" parent="1" vertex="1">
          <mxGeometry x="1620" y="110" width="519" height="800" as="geometry" />
        </mxCell>
        <mxCell id="qAK4HlkKnS2D4t3khg41-21" value="" style="rounded=1;whiteSpace=wrap;html=1;" parent="1" vertex="1">
          <mxGeometry x="1673" y="230" width="400" height="550" as="geometry" />
        </mxCell>
        <mxCell id="qAK4HlkKnS2D4t3khg41-22" value="&lt;font style=&quot;font-size: 21px;&quot;&gt;create admin account&lt;/font&gt;" style="text;html=1;strokeColor=none;fillColor=none;align=center;verticalAlign=middle;whiteSpace=wrap;rounded=0;" parent="1" vertex="1">
          <mxGeometry x="1654" y="190" width="430" height="30" as="geometry" />
        </mxCell>
        <mxCell id="qAK4HlkKnS2D4t3khg41-23" value="Username" style="text;html=1;strokeColor=none;fillColor=none;align=center;verticalAlign=middle;whiteSpace=wrap;rounded=0;" parent="1" vertex="1">
          <mxGeometry x="1713" y="240" width="60" height="30" as="geometry" />
        </mxCell>
        <mxCell id="qAK4HlkKnS2D4t3khg41-24" value="First name" style="text;html=1;strokeColor=none;fillColor=none;align=center;verticalAlign=middle;whiteSpace=wrap;rounded=0;" parent="1" vertex="1">
          <mxGeometry x="1713" y="303" width="60" height="30" as="geometry" />
        </mxCell>
        <mxCell id="qAK4HlkKnS2D4t3khg41-25" value="Last name" style="text;html=1;strokeColor=none;fillColor=none;align=center;verticalAlign=middle;whiteSpace=wrap;rounded=0;" parent="1" vertex="1">
          <mxGeometry x="1713" y="381" width="60" height="30" as="geometry" />
        </mxCell>
        <mxCell id="qAK4HlkKnS2D4t3khg41-26" value="Date of birth" style="text;html=1;strokeColor=none;fillColor=none;align=center;verticalAlign=middle;whiteSpace=wrap;rounded=0;" parent="1" vertex="1">
          <mxGeometry x="1683" y="469" width="130" height="30" as="geometry" />
        </mxCell>
        <mxCell id="qAK4HlkKnS2D4t3khg41-27" value="phone number" style="text;html=1;strokeColor=none;fillColor=none;align=center;verticalAlign=middle;whiteSpace=wrap;rounded=0;" parent="1" vertex="1">
          <mxGeometry x="1696" y="634" width="130" height="30" as="geometry" />
        </mxCell>
        <mxCell id="qAK4HlkKnS2D4t3khg41-28" value="Email" style="text;html=1;strokeColor=none;fillColor=none;align=center;verticalAlign=middle;whiteSpace=wrap;rounded=0;" parent="1" vertex="1">
          <mxGeometry x="1673" y="554" width="130" height="30" as="geometry" />
        </mxCell>
        <mxCell id="qAK4HlkKnS2D4t3khg41-34" value="" style="rounded=1;whiteSpace=wrap;html=1;" parent="1" vertex="1">
          <mxGeometry x="1715" y="664" width="307" height="40" as="geometry" />
        </mxCell>
        <mxCell id="qAK4HlkKnS2D4t3khg41-35" value="Create" style="rounded=1;whiteSpace=wrap;html=1;" parent="1" vertex="1">
          <mxGeometry x="1825" y="711" width="96" height="40" as="geometry" />
        </mxCell>
        <mxCell id="qAK4HlkKnS2D4t3khg41-36" value="" style="rounded=1;whiteSpace=wrap;html=1;" parent="1" vertex="1">
          <mxGeometry x="1712" y="584" width="307" height="40" as="geometry" />
        </mxCell>
        <mxCell id="qAK4HlkKnS2D4t3khg41-37" value="" style="rounded=1;whiteSpace=wrap;html=1;" parent="1" vertex="1">
          <mxGeometry x="1712" y="500" width="307" height="40" as="geometry" />
        </mxCell>
        <mxCell id="qAK4HlkKnS2D4t3khg41-38" value="" style="rounded=1;whiteSpace=wrap;html=1;" parent="1" vertex="1">
          <mxGeometry x="1712" y="419" width="307" height="40" as="geometry" />
        </mxCell>
        <mxCell id="qAK4HlkKnS2D4t3khg41-39" value="" style="rounded=1;whiteSpace=wrap;html=1;" parent="1" vertex="1">
          <mxGeometry x="1710" y="337" width="307" height="40" as="geometry" />
        </mxCell>
        <mxCell id="qAK4HlkKnS2D4t3khg41-40" value="" style="rounded=1;whiteSpace=wrap;html=1;" parent="1" vertex="1">
          <mxGeometry x="1710" y="264" width="307" height="40" as="geometry" />
        </mxCell>
        <mxCell id="qAK4HlkKnS2D4t3khg41-44" style="edgeStyle=orthogonalEdgeStyle;shape=connector;rounded=0;orthogonalLoop=1;jettySize=auto;html=1;labelBackgroundColor=default;strokeColor=default;strokeWidth=4;align=center;verticalAlign=middle;fontFamily=Helvetica;fontSize=12;fontColor=default;endArrow=classic;" parent="1" source="qAK4HlkKnS2D4t3khg41-41" edge="1">
          <mxGeometry relative="1" as="geometry">
            <mxPoint x="1805.2000732421875" y="218.79998779296875" as="targetPoint" />
          </mxGeometry>
        </mxCell>
        <mxCell id="qAK4HlkKnS2D4t3khg41-45" style="edgeStyle=orthogonalEdgeStyle;shape=connector;rounded=0;orthogonalLoop=1;jettySize=auto;html=1;labelBackgroundColor=default;strokeColor=default;strokeWidth=4;align=center;verticalAlign=middle;fontFamily=Helvetica;fontSize=12;fontColor=default;endArrow=classic;" parent="1" source="qAK4HlkKnS2D4t3khg41-41" edge="1">
          <mxGeometry relative="1" as="geometry">
            <mxPoint x="590.800048828125" y="181.19998168945312" as="targetPoint" />
          </mxGeometry>
        </mxCell>
        <mxCell id="qAK4HlkKnS2D4t3khg41-41" value="&lt;font style=&quot;font-size: 17px;&quot;&gt;Page title so the user knows what page they are on&amp;nbsp;&lt;/font&gt;" style="text;html=1;strokeColor=none;fillColor=none;align=center;verticalAlign=middle;whiteSpace=wrap;rounded=0;" parent="1" vertex="1">
          <mxGeometry x="1181" y="225" width="159" height="30" as="geometry" />
        </mxCell>
        <mxCell id="qAK4HlkKnS2D4t3khg41-48" style="edgeStyle=orthogonalEdgeStyle;shape=connector;rounded=0;orthogonalLoop=1;jettySize=auto;html=1;labelBackgroundColor=default;strokeColor=default;strokeWidth=4;align=center;verticalAlign=middle;fontFamily=Helvetica;fontSize=12;fontColor=default;endArrow=classic;" parent="1" source="qAK4HlkKnS2D4t3khg41-46" edge="1">
          <mxGeometry relative="1" as="geometry">
            <mxPoint x="647.6000366210938" y="344.3999938964844" as="targetPoint" />
          </mxGeometry>
        </mxCell>
        <mxCell id="qAK4HlkKnS2D4t3khg41-49" style="edgeStyle=orthogonalEdgeStyle;shape=connector;rounded=0;orthogonalLoop=1;jettySize=auto;html=1;labelBackgroundColor=default;strokeColor=default;strokeWidth=4;align=center;verticalAlign=middle;fontFamily=Helvetica;fontSize=12;fontColor=default;endArrow=classic;" parent="1" source="qAK4HlkKnS2D4t3khg41-46" edge="1">
          <mxGeometry relative="1" as="geometry">
            <mxPoint x="569.2000122070312" y="393.9999694824219" as="targetPoint" />
          </mxGeometry>
        </mxCell>
        <mxCell id="qAK4HlkKnS2D4t3khg41-50" style="edgeStyle=orthogonalEdgeStyle;shape=connector;rounded=0;orthogonalLoop=1;jettySize=auto;html=1;labelBackgroundColor=default;strokeColor=default;strokeWidth=4;align=center;verticalAlign=middle;fontFamily=Helvetica;fontSize=12;fontColor=default;endArrow=classic;" parent="1" source="qAK4HlkKnS2D4t3khg41-46" edge="1">
          <mxGeometry relative="1" as="geometry">
            <mxPoint x="1712.4000244140625" y="274.7999725341797" as="targetPoint" />
            <Array as="points">
              <mxPoint x="1499" y="319" />
              <mxPoint x="1499" y="275" />
            </Array>
          </mxGeometry>
        </mxCell>
        <mxCell id="qAK4HlkKnS2D4t3khg41-51" style="edgeStyle=orthogonalEdgeStyle;shape=connector;rounded=0;orthogonalLoop=1;jettySize=auto;html=1;labelBackgroundColor=default;strokeColor=default;strokeWidth=4;align=center;verticalAlign=middle;fontFamily=Helvetica;fontSize=12;fontColor=default;endArrow=classic;" parent="1" source="qAK4HlkKnS2D4t3khg41-46" edge="1">
          <mxGeometry relative="1" as="geometry">
            <mxPoint x="1723.5999755859375" y="365.1999816894531" as="targetPoint" />
            <Array as="points">
              <mxPoint x="1500" y="319" />
              <mxPoint x="1500" y="365" />
            </Array>
          </mxGeometry>
        </mxCell>
        <mxCell id="qAK4HlkKnS2D4t3khg41-46" value="&lt;span style=&quot;font-size: 17px;&quot;&gt;User inputs, for admin details&lt;/span&gt;" style="text;html=1;strokeColor=none;fillColor=none;align=center;verticalAlign=middle;whiteSpace=wrap;rounded=0;" parent="1" vertex="1">
          <mxGeometry x="1022" y="304" width="159" height="30" as="geometry" />
        </mxCell>
        <mxCell id="qAK4HlkKnS2D4t3khg41-53" style="edgeStyle=orthogonalEdgeStyle;shape=connector;rounded=0;orthogonalLoop=1;jettySize=auto;html=1;labelBackgroundColor=default;strokeColor=default;strokeWidth=4;align=center;verticalAlign=middle;fontFamily=Helvetica;fontSize=12;fontColor=default;endArrow=classic;" parent="1" source="qAK4HlkKnS2D4t3khg41-52" edge="1">
          <mxGeometry relative="1" as="geometry">
            <mxPoint x="845.2000122070312" y="433.9999694824219" as="targetPoint" />
          </mxGeometry>
        </mxCell>
        <mxCell id="qAK4HlkKnS2D4t3khg41-54" style="edgeStyle=orthogonalEdgeStyle;shape=connector;rounded=0;orthogonalLoop=1;jettySize=auto;html=1;labelBackgroundColor=default;strokeColor=default;strokeWidth=4;align=center;verticalAlign=middle;fontFamily=Helvetica;fontSize=12;fontColor=default;endArrow=classic;" parent="1" source="qAK4HlkKnS2D4t3khg41-52" edge="1">
          <mxGeometry relative="1" as="geometry">
            <mxPoint x="203.60006713867188" y="571.6000061035156" as="targetPoint" />
            <Array as="points">
              <mxPoint x="980" y="435" />
              <mxPoint x="980" y="663" />
              <mxPoint x="204" y="663" />
            </Array>
          </mxGeometry>
        </mxCell>
        <mxCell id="qAK4HlkKnS2D4t3khg41-52" value="&lt;span style=&quot;font-size: 17px;&quot;&gt;white space around the for so it stands out to the user.&lt;/span&gt;" style="text;html=1;strokeColor=none;fillColor=none;align=center;verticalAlign=middle;whiteSpace=wrap;rounded=0;" parent="1" vertex="1">
          <mxGeometry x="1010" y="420" width="159" height="30" as="geometry" />
        </mxCell>
        <mxCell id="qAK4HlkKnS2D4t3khg41-57" style="edgeStyle=orthogonalEdgeStyle;shape=connector;rounded=0;orthogonalLoop=1;jettySize=auto;html=1;labelBackgroundColor=default;strokeColor=default;strokeWidth=4;align=center;verticalAlign=middle;fontFamily=Helvetica;fontSize=12;fontColor=default;endArrow=classic;" parent="1" source="qAK4HlkKnS2D4t3khg41-55" edge="1">
          <mxGeometry relative="1" as="geometry">
            <mxPoint x="458.199951171875" y="532.4000244140625" as="targetPoint" />
            <Array as="points">
              <mxPoint x="289" y="465" />
              <mxPoint x="289" y="532" />
            </Array>
          </mxGeometry>
        </mxCell>
        <mxCell id="qAK4HlkKnS2D4t3khg41-55" value="&lt;span style=&quot;font-size: 17px;&quot;&gt;Submit button with box around to show its a button .&lt;/span&gt;" style="text;html=1;strokeColor=none;fillColor=none;align=center;verticalAlign=middle;whiteSpace=wrap;rounded=0;" parent="1" vertex="1">
          <mxGeometry x="-120" y="450" width="159" height="30" as="geometry" />
        </mxCell>
        <mxCell id="qAK4HlkKnS2D4t3khg41-59" style="edgeStyle=orthogonalEdgeStyle;shape=connector;rounded=0;orthogonalLoop=1;jettySize=auto;html=1;labelBackgroundColor=default;strokeColor=default;strokeWidth=4;align=center;verticalAlign=middle;fontFamily=Helvetica;fontSize=12;fontColor=default;endArrow=classic;" parent="1" source="qAK4HlkKnS2D4t3khg41-58" edge="1">
          <mxGeometry relative="1" as="geometry">
            <mxPoint x="1910.2001342773438" y="726" as="targetPoint" />
          </mxGeometry>
        </mxCell>
        <mxCell id="qAK4HlkKnS2D4t3khg41-58" value="&lt;span style=&quot;font-size: 17px;&quot;&gt;Submit button with box around to show its a button .&lt;/span&gt;" style="text;html=1;strokeColor=none;fillColor=none;align=center;verticalAlign=middle;whiteSpace=wrap;rounded=0;" parent="1" vertex="1">
          <mxGeometry x="2250" y="711" width="159" height="30" as="geometry" />
        </mxCell>
        <mxCell id="qAK4HlkKnS2D4t3khg41-62" style="edgeStyle=orthogonalEdgeStyle;shape=connector;rounded=0;orthogonalLoop=1;jettySize=auto;html=1;labelBackgroundColor=default;strokeColor=default;strokeWidth=4;align=center;verticalAlign=middle;fontFamily=Helvetica;fontSize=12;fontColor=default;endArrow=classic;" parent="1" source="qAK4HlkKnS2D4t3khg41-61" edge="1">
          <mxGeometry relative="1" as="geometry">
            <mxPoint x="1655.7999877929688" y="534.8000183105469" as="targetPoint" />
          </mxGeometry>
        </mxCell>
        <mxCell id="qAK4HlkKnS2D4t3khg41-63" style="edgeStyle=orthogonalEdgeStyle;shape=connector;rounded=0;orthogonalLoop=1;jettySize=auto;html=1;labelBackgroundColor=default;strokeColor=default;strokeWidth=4;align=center;verticalAlign=middle;fontFamily=Helvetica;fontSize=12;fontColor=default;endArrow=classic;" parent="1" source="qAK4HlkKnS2D4t3khg41-61" edge="1">
          <mxGeometry relative="1" as="geometry">
            <mxPoint x="1670.2000122070312" y="845.199951171875" as="targetPoint" />
            <Array as="points">
              <mxPoint x="1558" y="535" />
              <mxPoint x="1558" y="845" />
            </Array>
          </mxGeometry>
        </mxCell>
        <mxCell id="qAK4HlkKnS2D4t3khg41-61" value="&lt;span style=&quot;font-size: 17px;&quot;&gt;white&amp;nbsp;space around input, but not as much as desktop as the for needs to be bigger for the user to see on mobile.&lt;/span&gt;" style="text;html=1;strokeColor=none;fillColor=none;align=center;verticalAlign=middle;whiteSpace=wrap;rounded=0;" parent="1" vertex="1">
          <mxGeometry x="1210" y="520" width="240" height="30" as="geometry" />
        </mxCell>
        <mxCell id="qAK4HlkKnS2D4t3khg41-66" style="edgeStyle=orthogonalEdgeStyle;shape=connector;rounded=0;orthogonalLoop=1;jettySize=auto;html=1;labelBackgroundColor=default;strokeColor=default;strokeWidth=4;align=center;verticalAlign=middle;fontFamily=Helvetica;fontSize=12;fontColor=default;endArrow=classic;" parent="1" source="qAK4HlkKnS2D4t3khg41-64" edge="1">
          <mxGeometry relative="1" as="geometry">
            <mxPoint x="1749.111131456163" y="313.3333672417534" as="targetPoint" />
          </mxGeometry>
        </mxCell>
        <mxCell id="qAK4HlkKnS2D4t3khg41-67" style="edgeStyle=orthogonalEdgeStyle;shape=connector;rounded=0;orthogonalLoop=1;jettySize=auto;html=1;labelBackgroundColor=default;strokeColor=default;strokeWidth=4;align=center;verticalAlign=middle;fontFamily=Helvetica;fontSize=12;fontColor=default;endArrow=classic;" parent="1" source="qAK4HlkKnS2D4t3khg41-64" edge="1">
          <mxGeometry relative="1" as="geometry">
            <mxPoint x="1790.8888821072046" y="401.3333468967014" as="targetPoint" />
            <Array as="points">
              <mxPoint x="2040" y="290" />
              <mxPoint x="2040" y="401" />
            </Array>
          </mxGeometry>
        </mxCell>
        <mxCell id="qAK4HlkKnS2D4t3khg41-64" value="&lt;span style=&quot;font-size: 17px;&quot;&gt;labels for all the form inputs.&lt;/span&gt;" style="text;html=1;strokeColor=none;fillColor=none;align=center;verticalAlign=middle;whiteSpace=wrap;rounded=0;" parent="1" vertex="1">
          <mxGeometry x="2190" y="275" width="159" height="30" as="geometry" />
        </mxCell>
        <mxCell id="qAK4HlkKnS2D4t3khg41-68" value="&lt;span style=&quot;font-size: 17px;&quot;&gt;Submit button with box around to show its a button .&lt;/span&gt;" style="text;html=1;strokeColor=none;fillColor=none;align=center;verticalAlign=middle;whiteSpace=wrap;rounded=0;" parent="1" vertex="1">
          <mxGeometry x="2270" y="731" width="159" height="30" as="geometry" />
        </mxCell>
        <mxCell id="qAK4HlkKnS2D4t3khg41-70" style="edgeStyle=orthogonalEdgeStyle;shape=connector;rounded=0;orthogonalLoop=1;jettySize=auto;html=1;entryX=0;entryY=0.5;entryDx=0;entryDy=0;labelBackgroundColor=default;strokeColor=default;strokeWidth=4;align=center;verticalAlign=middle;fontFamily=Helvetica;fontSize=12;fontColor=default;endArrow=classic;" parent="1" source="qAK4HlkKnS2D4t3khg41-69" target="qAK4HlkKnS2D4t3khg41-5" edge="1">
          <mxGeometry relative="1" as="geometry" />
        </mxCell>
        <mxCell id="qAK4HlkKnS2D4t3khg41-71" style="edgeStyle=orthogonalEdgeStyle;shape=connector;rounded=0;orthogonalLoop=1;jettySize=auto;html=1;labelBackgroundColor=default;strokeColor=default;strokeWidth=4;align=center;verticalAlign=middle;fontFamily=Helvetica;fontSize=12;fontColor=default;endArrow=classic;" parent="1" source="qAK4HlkKnS2D4t3khg41-69" edge="1">
          <mxGeometry relative="1" as="geometry">
            <mxPoint x="342.88890245225684" y="319.5555623372395" as="targetPoint" />
            <Array as="points">
              <mxPoint x="56" y="215" />
              <mxPoint x="56" y="320" />
            </Array>
          </mxGeometry>
        </mxCell>
        <mxCell id="qAK4HlkKnS2D4t3khg41-69" value="&lt;span style=&quot;font-size: 17px;&quot;&gt;labels for all the form inputs.&lt;/span&gt;" style="text;html=1;strokeColor=none;fillColor=none;align=center;verticalAlign=middle;whiteSpace=wrap;rounded=0;" parent="1" vertex="1">
          <mxGeometry x="-140" y="200" width="159" height="30" as="geometry" />
        </mxCell>
        <mxCell id="qAK4HlkKnS2D4t3khg41-72" value="&lt;font style=&quot;font-size: 35px;&quot;&gt;&lt;b&gt;createadmin page&lt;/b&gt;&lt;/font&gt;" style="text;html=1;strokeColor=none;fillColor=none;align=center;verticalAlign=middle;whiteSpace=wrap;rounded=0;fontSize=12;fontFamily=Helvetica;fontColor=default;" parent="1" vertex="1">
          <mxGeometry x="1035.5" y="-50" width="450" height="30" as="geometry" />
        </mxCell>
      </root>
    </mxGraphModel>
  </diagram>
</mxfile>
